<svg xmlns="http://www.w3.org/2000/svg" version="1.1" xmlns:xlink="http://www.w3.org/1999/xlink" xmlns:svgjs="http://svgjs.dev/svgjs" width="1000" height="961" viewBox="0 0 1000 961"><g transform="matrix(1,0,0,1,0.8596264687791404,0.3897872881075841)"><svg viewBox="0 0 257 247" data-background-color="#ffffff" preserveAspectRatio="xMidYMid meet" height="961" width="1000" xmlns="http://www.w3.org/2000/svg" xmlns:xlink="http://www.w3.org/1999/xlink"><g id="tight-bounds" transform="matrix(1,0,0,1,-0.220924002476238,-0.09997365579206985)"><svg viewBox="0 0 257.44175722731904 247.2" height="247.2" width="257.44175722731904"><g><svg viewBox="0 0 257.44175722731904 247.2" height="247.2" width="257.44175722731904"><g><svg viewBox="0 0 257.44175722731904 247.2" height="247.2" width="257.44175722731904"><g id="textblocktransform"><svg viewBox="0 0 257.44175722731904 247.2" height="247.2" width="257.44175722731904" id="textblock"><g><svg viewBox="0 0 257.44175722731904 247.2" height="247.2" width="257.44175722731904"><path d="M256.839 53.02C255.629 27.36 252.179 20.227 252.179 20.227 241.589-6.202 228.373-0.506 216.5 3.292 195.538 3.446 174.66 9.091 153.747 12.119 109.849 12.581 65.577 4.986 21.898 23.717 17.795 29.464-4.257 24.846 0.73 56.304 2.037 69.39 6.805 83.913 6.66 95.922 7.314 98.026 8.221 93.202 8.609 96.23 9.964 104.39 12.179 100.541 13.995 105.365 11.465 118.246 13.28 128.971 15.011 140.21 11.961 143.135 8.052 141.749 6.297 151.449 6.116 158.479 5.135 157.145 4.058 156.837 3.271 156.632 1.686 157.402 1.952 159.608 2.86 167.152-1.037 171.514 1.408 178.904-0.275 186.91 2.569 193.838 2.182 202.511 2.134 204.255 2.4 205.744 2.824 206.154 4.7 208.361 1.964 212.672 2.255 217.342 21.498 249.262 42.376 227.195 62.091 241.872 67.211 231.608 63.362 245.516 65.408 243.36 67.005 240.846 68.167 251.263 69.97 245.362 70.249 243.668 69.825 239.665 70.818 240.435 71.338 240.846 71.798 240.743 71.871 238.382 71.98 234.841 71.023 237.048 70.769 235.201 73.517 225.861 72.839 248.081 75.417 247.158 75.296 244.438 74.545 240.538 76.082 241.051 77.607 237.151 77.656 233.918 79.011 242.693 79.06 244.592 79.302 245.926 79.689 246.85 83.925 237.305 88.137 250.237 92.579 245.926 95.302 241.205 97.916 248.492 100.675 246.696 101.644 245.259 102.624 242.693 103.556 247.004 114.969 247.928 127.132 244.079 137.952 247.158 166.866 241.41 197.765 249.518 228.252 241.923 235.441 238.998 242.909 234.841 249.916 231.506 249.916 231.506 255.592 222.371 255.592 181.316S256.803 145.393 256.984 112.703C257.166 80.013 258.013 78.679 256.803 53.02Z" opacity="1" fill="#ef584f" data-fill-palette-color="tertiary"></path><g transform="matrix(1,0,0,1,55.76832,26.230666666666668)"><svg width="145.90511722731904" viewBox="4.150000095367432 -32.70000076293945 24.5 32.70000076293945" height="194.73866666666666" data-palette-color="#ffffff"><path d="M9.7 0L4.15 0 4.15-32.7 10.1-32.7 20.3-14.3 23.65-7.35 23.85-7.35Q23.65-9.9 23.38-12.83 23.1-15.75 23.1-18.5L23.1-18.5 23.1-32.7 28.65-32.7 28.65 0 22.7 0 12.5-18.4 9.15-25.35 8.95-25.35Q9.15-22.75 9.43-19.9 9.7-17.05 9.7-14.3L9.7-14.3 9.7 0Z" opacity="1" transform="matrix(1,0,0,1,0,0)" fill="#ffffff" class="wordmark-text-0" data-fill-palette-color="quaternary" id="text-0"></path></svg></g></svg></g></svg></g></svg></g><g></g></svg></g><defs></defs></svg><rect width="257.44175722731904" height="247.2" fill="none" stroke="none" visibility="hidden"></rect></g></svg></g></svg>
